solid Default
  facet normal -1.305262e-01 9.914449e-01 4.855526e-17
    outer loop
      vertex 4.946947e-01 -2.375841e+01 4.775200e+00
      vertex 4.946947e-01 -2.375841e+01 0.000000e+00
      vertex 8.381939e-02 -2.381250e+01 4.775200e+00
    endloop
  endfacet
  facet normal -3.826834e-01 9.238795e-01 1.437610e-16
    outer loop
      vertex 4.946947e-01 -2.375841e+01 4.775200e+00
      vertex 8.775692e-01 -2.359982e+01 0.000000e+00
      vertex 4.946947e-01 -2.375841e+01 0.000000e+00
    endloop
  endfacet
  facet normal -3.826834e-01 9.238795e-01 0.000000e+00
    outer loop
      vertex 4.946947e-01 -2.375841e+01 4.775200e+00
      vertex 8.775692e-01 -2.359982e+01 4.775200e+00
      vertex 8.775692e-01 -2.359982e+01 0.000000e+00
    endloop
  endfacet
  facet normal -6.087614e-01 7.933533e-01 0.000000e+00
    outer loop
      vertex 8.775692e-01 -2.359982e+01 0.000000e+00
      vertex 8.775692e-01 -2.359982e+01 4.775200e+00
      vertex 1.206351e+00 -2.334753e+01 0.000000e+00
    endloop
  endfacet
  facet normal -6.087614e-01 7.933533e-01 0.000000e+00
    outer loop
      vertex 1.206351e+00 -2.334753e+01 0.000000e+00
      vertex 8.775692e-01 -2.359982e+01 4.775200e+00
      vertex 1.206351e+00 -2.334753e+01 4.775200e+00
    endloop
  endfacet
  facet normal -7.933533e-01 6.087614e-01 2.945348e-16
    outer loop
      vertex 1.458639e+00 -2.301875e+01 0.000000e+00
      vertex 1.206351e+00 -2.334753e+01 4.775200e+00
      vertex 1.458639e+00 -2.301875e+01 4.775200e+00
    endloop
  endfacet
  facet normal -9.238795e-01 3.826834e-01 0.000000e+00
    outer loop
      vertex 1.617229e+00 -2.263588e+01 0.000000e+00
      vertex 1.458639e+00 -2.301875e+01 4.775200e+00
      vertex 1.617229e+00 -2.263588e+01 4.775200e+00
    endloop
  endfacet
  facet normal -9.914449e-01 1.305262e-01 0.000000e+00
    outer loop
      vertex 1.671320e+00 -2.222500e+01 0.000000e+00
      vertex 1.617229e+00 -2.263588e+01 4.775200e+00
      vertex 1.671320e+00 -2.222500e+01 4.775200e+00
    endloop
  endfacet
  facet normal -9.914449e-01 -1.305262e-01 0.000000e+00
    outer loop
      vertex 1.617229e+00 -2.181412e+01 0.000000e+00
      vertex 1.671320e+00 -2.222500e+01 4.775200e+00
      vertex 1.617229e+00 -2.181412e+01 4.775200e+00
    endloop
  endfacet
  facet normal -9.238795e-01 -3.826834e-01 -3.436239e-16
    outer loop
      vertex 1.458639e+00 -2.143125e+01 0.000000e+00
      vertex 1.617229e+00 -2.181412e+01 4.775200e+00
      vertex 1.458639e+00 -2.143125e+01 4.775200e+00
    endloop
  endfacet
  facet normal -7.933533e-01 -6.087614e-01 0.000000e+00
    outer loop
      vertex 1.206351e+00 -2.110247e+01 0.000000e+00
      vertex 1.458639e+00 -2.143125e+01 4.775200e+00
      vertex 1.206351e+00 -2.110247e+01 4.775200e+00
    endloop
  endfacet
  facet normal -6.087614e-01 -7.933533e-01 0.000000e+00
    outer loop
      vertex 8.775692e-01 -2.085018e+01 0.000000e+00
      vertex 1.206351e+00 -2.110247e+01 4.775200e+00
      vertex 8.775692e-01 -2.085018e+01 4.775200e+00
    endloop
  endfacet
  facet normal -3.826834e-01 -9.238795e-01 0.000000e+00
    outer loop
      vertex 4.946947e-01 -2.069159e+01 0.000000e+00
      vertex 8.775692e-01 -2.085018e+01 4.775200e+00
      vertex 4.946947e-01 -2.069159e+01 4.775200e+00
    endloop
  endfacet
  facet normal -1.305262e-01 -9.914449e-01 0.000000e+00
    outer loop
      vertex 8.381939e-02 -2.063750e+01 0.000000e+00
      vertex 4.946947e-01 -2.069159e+01 4.775200e+00
      vertex 8.381939e-02 -2.063750e+01 4.775200e+00
    endloop
  endfacet
  facet normal 1.305262e-01 -9.914449e-01 4.908913e-17
    outer loop
      vertex -3.270559e-01 -2.069159e+01 0.000000e+00
      vertex 8.381939e-02 -2.063750e+01 4.775200e+00
      vertex -3.270559e-01 -2.069159e+01 4.775200e+00
    endloop
  endfacet
  facet normal 3.826834e-01 -9.238795e-01 1.402547e-16
    outer loop
      vertex -7.099304e-01 -2.085018e+01 0.000000e+00
      vertex -3.270559e-01 -2.069159e+01 4.775200e+00
      vertex -7.099304e-01 -2.085018e+01 4.775200e+00
    endloop
  endfacet
  facet normal 6.087614e-01 -7.933533e-01 1.122037e-16
    outer loop
      vertex -1.038713e+00 -2.110247e+01 0.000000e+00
      vertex -7.099304e-01 -2.085018e+01 4.775200e+00
      vertex -1.038713e+00 -2.110247e+01 4.775200e+00
    endloop
  endfacet
  facet normal 7.933533e-01 -6.087614e-01 1.472674e-16
    outer loop
      vertex -1.290996e+00 -2.143125e+01 0.000000e+00
      vertex -1.038713e+00 -2.110247e+01 4.775200e+00
      vertex -1.290996e+00 -2.143125e+01 4.775200e+00
    endloop
  endfacet
  facet normal 9.238795e-01 -3.826834e-01 1.718119e-16
    outer loop
      vertex -1.449587e+00 -2.181412e+01 0.000000e+00
      vertex -1.290996e+00 -2.143125e+01 4.775200e+00
      vertex -1.449587e+00 -2.181412e+01 4.775200e+00
    endloop
  endfacet
  facet normal 9.914449e-01 -1.305262e-01 0.000000e+00
    outer loop
      vertex -1.503681e+00 -2.222500e+01 0.000000e+00
      vertex -1.449587e+00 -2.181412e+01 4.775200e+00
      vertex -1.503681e+00 -2.222500e+01 4.775200e+00
    endloop
  endfacet
  facet normal 9.914449e-01 1.305262e-01 0.000000e+00
    outer loop
      vertex -1.449587e+00 -2.263588e+01 0.000000e+00
      vertex -1.503681e+00 -2.222500e+01 4.775200e+00
      vertex -1.449587e+00 -2.263588e+01 4.775200e+00
    endloop
  endfacet
  facet normal 9.238795e-01 3.826834e-01 -1.718119e-16
    outer loop
      vertex -1.290996e+00 -2.301875e+01 0.000000e+00
      vertex -1.449587e+00 -2.263588e+01 4.775200e+00
      vertex -1.290996e+00 -2.301875e+01 4.775200e+00
    endloop
  endfacet
  facet normal 7.933533e-01 6.087614e-01 0.000000e+00
    outer loop
      vertex -1.038713e+00 -2.334753e+01 0.000000e+00
      vertex -1.290996e+00 -2.301875e+01 4.775200e+00
      vertex -1.038713e+00 -2.334753e+01 4.775200e+00
    endloop
  endfacet
  facet normal 6.087614e-01 7.933533e-01 0.000000e+00
    outer loop
      vertex -7.099304e-01 -2.359982e+01 0.000000e+00
      vertex -1.038713e+00 -2.334753e+01 4.775200e+00
      vertex -7.099304e-01 -2.359982e+01 4.775200e+00
    endloop
  endfacet
  facet normal 3.826834e-01 9.238795e-01 0.000000e+00
    outer loop
      vertex -3.270559e-01 -2.375841e+01 0.000000e+00
      vertex -7.099304e-01 -2.359982e+01 4.775200e+00
      vertex -3.270559e-01 -2.375841e+01 4.775200e+00
    endloop
  endfacet
  facet normal 1.305262e-01 9.914449e-01 0.000000e+00
    outer loop
      vertex 8.381939e-02 -2.381250e+01 0.000000e+00
      vertex -3.270559e-01 -2.375841e+01 4.775200e+00
      vertex 8.381939e-02 -2.381250e+01 4.775200e+00
    endloop
  endfacet
  facet normal -1.305262e-01 9.914449e-01 0.000000e+00
    outer loop
      vertex 4.946947e-01 -2.375841e+01 0.000000e+00
      vertex 8.381939e-02 -2.381250e+01 0.000000e+00
      vertex 8.381939e-02 -2.381250e+01 4.775200e+00
    endloop
  endfacet
  facet normal -7.933533e-01 6.087614e-01 0.000000e+00
    outer loop
      vertex 1.206351e+00 -2.334753e+01 0.000000e+00
      vertex 1.206351e+00 -2.334753e+01 4.775200e+00
      vertex 1.458639e+00 -2.301875e+01 0.000000e+00
    endloop
  endfacet
  facet normal -9.238795e-01 3.826834e-01 3.436798e-16
    outer loop
      vertex 1.458639e+00 -2.301875e+01 0.000000e+00
      vertex 1.458639e+00 -2.301875e+01 4.775200e+00
      vertex 1.617229e+00 -2.263588e+01 0.000000e+00
    endloop
  endfacet
  facet normal -9.914449e-01 1.305262e-01 0.000000e+00
    outer loop
      vertex 1.617229e+00 -2.263588e+01 0.000000e+00
      vertex 1.617229e+00 -2.263588e+01 4.775200e+00
      vertex 1.671320e+00 -2.222500e+01 0.000000e+00
    endloop
  endfacet
  facet normal -9.914449e-01 -1.305262e-01 0.000000e+00
    outer loop
      vertex 1.671320e+00 -2.222500e+01 0.000000e+00
      vertex 1.671320e+00 -2.222500e+01 4.775200e+00
      vertex 1.617229e+00 -2.181412e+01 0.000000e+00
    endloop
  endfacet
  facet normal -9.238795e-01 -3.826834e-01 0.000000e+00
    outer loop
      vertex 1.617229e+00 -2.181412e+01 0.000000e+00
      vertex 1.617229e+00 -2.181412e+01 4.775200e+00
      vertex 1.458639e+00 -2.143125e+01 0.000000e+00
    endloop
  endfacet
  facet normal -7.933533e-01 -6.087614e-01 -2.951245e-16
    outer loop
      vertex 1.458639e+00 -2.143125e+01 0.000000e+00
      vertex 1.458639e+00 -2.143125e+01 4.775200e+00
      vertex 1.206351e+00 -2.110247e+01 0.000000e+00
    endloop
  endfacet
  facet normal -6.087614e-01 -7.933533e-01 0.000000e+00
    outer loop
      vertex 1.206351e+00 -2.110247e+01 0.000000e+00
      vertex 1.206351e+00 -2.110247e+01 4.775200e+00
      vertex 8.775692e-01 -2.085018e+01 0.000000e+00
    endloop
  endfacet
  facet normal -3.826834e-01 -9.238795e-01 0.000000e+00
    outer loop
      vertex 8.775692e-01 -2.085018e+01 0.000000e+00
      vertex 8.775692e-01 -2.085018e+01 4.775200e+00
      vertex 4.946947e-01 -2.069159e+01 0.000000e+00
    endloop
  endfacet
  facet normal -1.305262e-01 -9.914449e-01 0.000000e+00
    outer loop
      vertex 4.946947e-01 -2.069159e+01 0.000000e+00
      vertex 4.946947e-01 -2.069159e+01 4.775200e+00
      vertex 8.381939e-02 -2.063750e+01 0.000000e+00
    endloop
  endfacet
  facet normal 1.305262e-01 -9.914449e-01 0.000000e+00
    outer loop
      vertex 8.381939e-02 -2.063750e+01 0.000000e+00
      vertex 8.381939e-02 -2.063750e+01 4.775200e+00
      vertex -3.270559e-01 -2.069159e+01 0.000000e+00
    endloop
  endfacet
  facet normal 3.826834e-01 -9.238795e-01 1.423568e-16
    outer loop
      vertex -3.270559e-01 -2.069159e+01 0.000000e+00
      vertex -3.270559e-01 -2.069159e+01 4.775200e+00
      vertex -7.099304e-01 -2.085018e+01 0.000000e+00
    endloop
  endfacet
  facet normal 6.087614e-01 -7.933533e-01 2.264570e-16
    outer loop
      vertex -7.099304e-01 -2.085018e+01 0.000000e+00
      vertex -7.099304e-01 -2.085018e+01 4.775200e+00
      vertex -1.038713e+00 -2.110247e+01 0.000000e+00
    endloop
  endfacet
  facet normal 7.933533e-01 -6.087614e-01 1.475623e-16
    outer loop
      vertex -1.038713e+00 -2.110247e+01 0.000000e+00
      vertex -1.038713e+00 -2.110247e+01 4.775200e+00
      vertex -1.290996e+00 -2.143125e+01 0.000000e+00
    endloop
  endfacet
  facet normal 9.238795e-01 -3.826834e-01 1.718399e-16
    outer loop
      vertex -1.290996e+00 -2.143125e+01 0.000000e+00
      vertex -1.290996e+00 -2.143125e+01 4.775200e+00
      vertex -1.449587e+00 -2.181412e+01 0.000000e+00
    endloop
  endfacet
  facet normal 9.914449e-01 -1.305262e-01 1.844069e-16
    outer loop
      vertex -1.449587e+00 -2.181412e+01 0.000000e+00
      vertex -1.449587e+00 -2.181412e+01 4.775200e+00
      vertex -1.503681e+00 -2.222500e+01 0.000000e+00
    endloop
  endfacet
  facet normal 9.914449e-01 1.305262e-01 0.000000e+00
    outer loop
      vertex -1.503681e+00 -2.222500e+01 0.000000e+00
      vertex -1.503681e+00 -2.222500e+01 4.775200e+00
      vertex -1.449587e+00 -2.263588e+01 0.000000e+00
    endloop
  endfacet
  facet normal 9.238795e-01 3.826834e-01 0.000000e+00
    outer loop
      vertex -1.449587e+00 -2.263588e+01 0.000000e+00
      vertex -1.449587e+00 -2.263588e+01 4.775200e+00
      vertex -1.290996e+00 -2.301875e+01 0.000000e+00
    endloop
  endfacet
  facet normal 7.933533e-01 6.087614e-01 -1.475623e-16
    outer loop
      vertex -1.290996e+00 -2.301875e+01 0.000000e+00
      vertex -1.290996e+00 -2.301875e+01 4.775200e+00
      vertex -1.038713e+00 -2.334753e+01 0.000000e+00
    endloop
  endfacet
  facet normal 6.087614e-01 7.933533e-01 0.000000e+00
    outer loop
      vertex -1.038713e+00 -2.334753e+01 0.000000e+00
      vertex -1.038713e+00 -2.334753e+01 4.775200e+00
      vertex -7.099304e-01 -2.359982e+01 0.000000e+00
    endloop
  endfacet
  facet normal 3.826834e-01 9.238795e-01 0.000000e+00
    outer loop
      vertex -7.099304e-01 -2.359982e+01 0.000000e+00
      vertex -7.099304e-01 -2.359982e+01 4.775200e+00
      vertex -3.270559e-01 -2.375841e+01 0.000000e+00
    endloop
  endfacet
  facet normal 1.305262e-01 9.914449e-01 0.000000e+00
    outer loop
      vertex -3.270559e-01 -2.375841e+01 0.000000e+00
      vertex -3.270559e-01 -2.375841e+01 4.775200e+00
      vertex 8.381939e-02 -2.381250e+01 0.000000e+00
    endloop
  endfacet
  facet normal 9.914449e-01 1.305262e-01 -1.358517e-16
    outer loop
      vertex -1.449587e+00 2.181412e+01 4.775200e+00
      vertex -1.449587e+00 2.181412e+01 0.000000e+00
      vertex -1.503681e+00 2.222500e+01 4.775200e+00
    endloop
  endfacet
  facet normal 9.238795e-01 3.826834e-01 -3.155730e-17
    outer loop
      vertex -1.449587e+00 2.181412e+01 4.775200e+00
      vertex -1.290996e+00 2.143125e+01 0.000000e+00
      vertex -1.449587e+00 2.181412e+01 0.000000e+00
    endloop
  endfacet
  facet normal 9.238795e-01 3.826834e-01 -1.006615e-16
    outer loop
      vertex -1.449587e+00 2.181412e+01 4.775200e+00
      vertex -1.290996e+00 2.143125e+01 4.775200e+00
      vertex -1.290996e+00 2.143125e+01 0.000000e+00
    endloop
  endfacet
  facet normal 7.933533e-01 6.087614e-01 -3.433376e-17
    outer loop
      vertex -1.290996e+00 2.143125e+01 0.000000e+00
      vertex -1.290996e+00 2.143125e+01 4.775200e+00
      vertex -1.038713e+00 2.110247e+01 0.000000e+00
    endloop
  endfacet
  facet normal 7.933533e-01 6.087614e-01 0.000000e+00
    outer loop
      vertex -1.038713e+00 2.110247e+01 0.000000e+00
      vertex -1.290996e+00 2.143125e+01 4.775200e+00
      vertex -1.038713e+00 2.110247e+01 4.775200e+00
    endloop
  endfacet
  facet normal 6.087614e-01 7.933533e-01 -7.714006e-17
    outer loop
      vertex -7.099304e-01 2.085018e+01 0.000000e+00
      vertex -1.038713e+00 2.110247e+01 4.775200e+00
      vertex -7.099304e-01 2.085018e+01 4.775200e+00
    endloop
  endfacet
  facet normal 3.826834e-01 9.238795e-01 3.155730e-17
    outer loop
      vertex -3.270559e-01 2.069159e+01 0.000000e+00
      vertex -7.099304e-01 2.085018e+01 4.775200e+00
      vertex -3.270559e-01 2.069159e+01 4.775200e+00
    endloop
  endfacet
  facet normal 1.305262e-01 9.914449e-01 0.000000e+00
    outer loop
      vertex 8.381939e-02 2.063750e+01 0.000000e+00
      vertex -3.270559e-01 2.069159e+01 4.775200e+00
      vertex 8.381939e-02 2.063750e+01 4.775200e+00
    endloop
  endfacet
  facet normal -1.305262e-01 9.914449e-01 -1.349951e-16
    outer loop
      vertex 4.946947e-01 2.069159e+01 0.000000e+00
      vertex 8.381939e-02 2.063750e+01 4.775200e+00
      vertex 4.946947e-01 2.069159e+01 4.775200e+00
    endloop
  endfacet
  facet normal -3.826834e-01 9.238795e-01 -3.155730e-17
    outer loop
      vertex 8.775692e-01 2.085018e+01 0.000000e+00
      vertex 4.946947e-01 2.069159e+01 4.775200e+00
      vertex 8.775692e-01 2.085018e+01 4.775200e+00
    endloop
  endfacet
  facet normal -6.087614e-01 7.933533e-01 7.714006e-17
    outer loop
      vertex 1.206351e+00 2.110247e+01 0.000000e+00
      vertex 8.775692e-01 2.085018e+01 4.775200e+00
      vertex 1.206351e+00 2.110247e+01 4.775200e+00
    endloop
  endfacet
  facet normal -7.933533e-01 6.087614e-01 1.823310e-16
    outer loop
      vertex 1.458639e+00 2.143125e+01 0.000000e+00
      vertex 1.206351e+00 2.110247e+01 4.775200e+00
      vertex 1.458639e+00 2.143125e+01 4.775200e+00
    endloop
  endfacet
  facet normal -9.238795e-01 3.826834e-01 0.000000e+00
    outer loop
      vertex 1.617229e+00 2.181412e+01 0.000000e+00
      vertex 1.458639e+00 2.143125e+01 4.775200e+00
      vertex 1.617229e+00 2.181412e+01 4.775200e+00
    endloop
  endfacet
  facet normal -9.914449e-01 1.305262e-01 0.000000e+00
    outer loop
      vertex 1.671320e+00 2.222500e+01 0.000000e+00
      vertex 1.617229e+00 2.181412e+01 4.775200e+00
      vertex 1.671320e+00 2.222500e+01 4.775200e+00
    endloop
  endfacet
  facet normal -9.914449e-01 -1.305262e-01 2.454456e-17
    outer loop
      vertex 1.617229e+00 2.263587e+01 0.000000e+00
      vertex 1.671320e+00 2.222500e+01 4.775200e+00
      vertex 1.617229e+00 2.263587e+01 4.775200e+00
    endloop
  endfacet
  facet normal -9.238795e-01 -3.826834e-01 -2.033692e-16
    outer loop
      vertex 1.458639e+00 2.301875e+01 0.000000e+00
      vertex 1.617229e+00 2.263587e+01 4.775200e+00
      vertex 1.458639e+00 2.301875e+01 4.775200e+00
    endloop
  endfacet
  facet normal -7.933533e-01 -6.087614e-01 -1.262292e-16
    outer loop
      vertex 1.206351e+00 2.334753e+01 0.000000e+00
      vertex 1.458639e+00 2.301875e+01 4.775200e+00
      vertex 1.206351e+00 2.334753e+01 4.775200e+00
    endloop
  endfacet
  facet normal -6.087614e-01 -7.933533e-01 -1.542801e-16
    outer loop
      vertex 8.775692e-01 2.359981e+01 0.000000e+00
      vertex 1.206351e+00 2.334753e+01 4.775200e+00
      vertex 8.775692e-01 2.359981e+01 4.775200e+00
    endloop
  endfacet
  facet normal -3.826834e-01 -9.238795e-01 2.805093e-17
    outer loop
      vertex 4.946947e-01 2.375841e+01 0.000000e+00
      vertex 8.775692e-01 2.359981e+01 4.775200e+00
      vertex 4.946947e-01 2.375841e+01 4.775200e+00
    endloop
  endfacet
  facet normal -1.305262e-01 -9.914449e-01 0.000000e+00
    outer loop
      vertex 8.381939e-02 2.381250e+01 0.000000e+00
      vertex 4.946947e-01 2.375841e+01 4.775200e+00
      vertex 8.381939e-02 2.381250e+01 4.775200e+00
    endloop
  endfacet
  facet normal 1.305262e-01 -9.914449e-01 -9.116552e-17
    outer loop
      vertex -3.270559e-01 2.375841e+01 0.000000e+00
      vertex 8.381939e-02 2.381250e+01 4.775200e+00
      vertex -3.270559e-01 2.375841e+01 4.775200e+00
    endloop
  endfacet
  facet normal 3.826834e-01 -9.238795e-01 -1.718119e-16
    outer loop
      vertex -7.099304e-01 2.359981e+01 0.000000e+00
      vertex -3.270559e-01 2.375841e+01 4.775200e+00
      vertex -7.099304e-01 2.359981e+01 4.775200e+00
    endloop
  endfacet
  facet normal 6.087614e-01 -7.933533e-01 1.122037e-16
    outer loop
      vertex -1.038713e+00 2.334753e+01 0.000000e+00
      vertex -7.099304e-01 2.359981e+01 4.775200e+00
      vertex -1.038713e+00 2.334753e+01 4.775200e+00
    endloop
  endfacet
  facet normal 7.933533e-01 -6.087614e-01 3.506366e-17
    outer loop
      vertex -1.290996e+00 2.301875e+01 0.000000e+00
      vertex -1.038713e+00 2.334753e+01 4.775200e+00
      vertex -1.290996e+00 2.301875e+01 4.775200e+00
    endloop
  endfacet
  facet normal 9.238795e-01 -3.826834e-01 1.016846e-16
    outer loop
      vertex -1.449587e+00 2.263587e+01 0.000000e+00
      vertex -1.290996e+00 2.301875e+01 4.775200e+00
      vertex -1.449587e+00 2.263587e+01 4.775200e+00
    endloop
  endfacet
  facet normal 9.914449e-01 -1.305262e-01 0.000000e+00
    outer loop
      vertex -1.503681e+00 2.222500e+01 0.000000e+00
      vertex -1.449587e+00 2.263587e+01 4.775200e+00
      vertex -1.503681e+00 2.222500e+01 4.775200e+00
    endloop
  endfacet
  facet normal 9.914449e-01 1.305262e-01 0.000000e+00
    outer loop
      vertex -1.449587e+00 2.181412e+01 0.000000e+00
      vertex -1.503681e+00 2.222500e+01 0.000000e+00
      vertex -1.503681e+00 2.222500e+01 4.775200e+00
    endloop
  endfacet
  facet normal 6.087614e-01 7.933533e-01 0.000000e+00
    outer loop
      vertex -1.038713e+00 2.110247e+01 0.000000e+00
      vertex -1.038713e+00 2.110247e+01 4.775200e+00
      vertex -7.099304e-01 2.085018e+01 0.000000e+00
    endloop
  endfacet
  facet normal 3.826834e-01 9.238795e-01 2.948306e-17
    outer loop
      vertex -7.099304e-01 2.085018e+01 0.000000e+00
      vertex -7.099304e-01 2.085018e+01 4.775200e+00
      vertex -3.270559e-01 2.069159e+01 0.000000e+00
    endloop
  endfacet
  facet normal 1.305262e-01 9.914449e-01 1.358517e-16
    outer loop
      vertex -3.270559e-01 2.069159e+01 0.000000e+00
      vertex -3.270559e-01 2.069159e+01 4.775200e+00
      vertex 8.381939e-02 2.063750e+01 0.000000e+00
    endloop
  endfacet
  facet normal -1.305262e-01 9.914449e-01 0.000000e+00
    outer loop
      vertex 8.381939e-02 2.063750e+01 0.000000e+00
      vertex 8.381939e-02 2.063750e+01 4.775200e+00
      vertex 4.946947e-01 2.069159e+01 0.000000e+00
    endloop
  endfacet
  facet normal -3.826834e-01 9.238795e-01 -2.948306e-17
    outer loop
      vertex 4.946947e-01 2.069159e+01 0.000000e+00
      vertex 4.946947e-01 2.069159e+01 4.775200e+00
      vertex 8.775692e-01 2.085018e+01 0.000000e+00
    endloop
  endfacet
  facet normal -6.087614e-01 7.933533e-01 7.889475e-17
    outer loop
      vertex 8.775692e-01 2.085018e+01 0.000000e+00
      vertex 8.775692e-01 2.085018e+01 4.775200e+00
      vertex 1.206351e+00 2.110247e+01 0.000000e+00
    endloop
  endfacet
  facet normal -7.933533e-01 6.087614e-01 1.818960e-16
    outer loop
      vertex 1.206351e+00 2.110247e+01 0.000000e+00
      vertex 1.206351e+00 2.110247e+01 4.775200e+00
      vertex 1.458639e+00 2.143125e+01 0.000000e+00
    endloop
  endfacet
  facet normal -9.238795e-01 3.826834e-01 2.725014e-16
    outer loop
      vertex 1.458639e+00 2.143125e+01 0.000000e+00
      vertex 1.458639e+00 2.143125e+01 4.775200e+00
      vertex 1.617229e+00 2.181412e+01 0.000000e+00
    endloop
  endfacet
  facet normal -9.914449e-01 1.305262e-01 0.000000e+00
    outer loop
      vertex 1.617229e+00 2.181412e+01 0.000000e+00
      vertex 1.617229e+00 2.181412e+01 4.775200e+00
      vertex 1.671320e+00 2.222500e+01 0.000000e+00
    endloop
  endfacet
  facet normal -9.914449e-01 -1.305262e-01 0.000000e+00
    outer loop
      vertex 1.671320e+00 2.222500e+01 0.000000e+00
      vertex 1.671320e+00 2.222500e+01 4.775200e+00
      vertex 1.617229e+00 2.263587e+01 0.000000e+00
    endloop
  endfacet
  facet normal -9.238795e-01 -3.826834e-01 7.117841e-17
    outer loop
      vertex 1.617229e+00 2.263587e+01 0.000000e+00
      vertex 1.617229e+00 2.263587e+01 4.775200e+00
      vertex 1.458639e+00 2.301875e+01 0.000000e+00
    endloop
  endfacet
  facet normal -7.933533e-01 -6.087614e-01 -6.866751e-17
    outer loop
      vertex 1.458639e+00 2.301875e+01 0.000000e+00
      vertex 1.458639e+00 2.301875e+01 4.775200e+00
      vertex 1.206351e+00 2.334753e+01 0.000000e+00
    endloop
  endfacet
  facet normal -6.087614e-01 -7.933533e-01 -5.113619e-18
    outer loop
      vertex 1.206351e+00 2.334753e+01 0.000000e+00
      vertex 1.206351e+00 2.334753e+01 4.775200e+00
      vertex 8.775692e-01 2.359981e+01 0.000000e+00
    endloop
  endfacet
  facet normal -3.826834e-01 -9.238795e-01 -5.643688e-17
    outer loop
      vertex 8.775692e-01 2.359981e+01 0.000000e+00
      vertex 8.775692e-01 2.359981e+01 4.775200e+00
      vertex 4.946947e-01 2.375841e+01 0.000000e+00
    endloop
  endfacet
  facet normal -1.305262e-01 -9.914449e-01 1.358517e-16
    outer loop
      vertex 4.946947e-01 2.375841e+01 0.000000e+00
      vertex 4.946947e-01 2.375841e+01 4.775200e+00
      vertex 8.381939e-02 2.381250e+01 0.000000e+00
    endloop
  endfacet
  facet normal 1.305262e-01 -9.914449e-01 0.000000e+00
    outer loop
      vertex 8.381939e-02 2.381250e+01 0.000000e+00
      vertex 8.381939e-02 2.381250e+01 4.775200e+00
      vertex -3.270559e-01 2.375841e+01 0.000000e+00
    endloop
  endfacet
  facet normal 3.826834e-01 -9.238795e-01 -8.591995e-17
    outer loop
      vertex -3.270559e-01 2.375841e+01 0.000000e+00
      vertex -3.270559e-01 2.375841e+01 4.775200e+00
      vertex -7.099304e-01 2.359981e+01 0.000000e+00
    endloop
  endfacet
  facet normal 6.087614e-01 -7.933533e-01 -1.475623e-16
    outer loop
      vertex -7.099304e-01 2.359981e+01 0.000000e+00
      vertex -7.099304e-01 2.359981e+01 4.775200e+00
      vertex -1.038713e+00 2.334753e+01 0.000000e+00
    endloop
  endfacet
  facet normal 7.933533e-01 -6.087614e-01 1.475623e-16
    outer loop
      vertex -1.038713e+00 2.334753e+01 0.000000e+00
      vertex -1.038713e+00 2.334753e+01 4.775200e+00
      vertex -1.290996e+00 2.301875e+01 0.000000e+00
    endloop
  endfacet
  facet normal 9.238795e-01 -3.826834e-01 1.006615e-16
    outer loop
      vertex -1.290996e+00 2.301875e+01 0.000000e+00
      vertex -1.290996e+00 2.301875e+01 4.775200e+00
      vertex -1.449587e+00 2.263587e+01 0.000000e+00
    endloop
  endfacet
  facet normal 9.914449e-01 -1.305262e-01 1.601293e-16
    outer loop
      vertex -1.449587e+00 2.263587e+01 0.000000e+00
      vertex -1.449587e+00 2.263587e+01 4.775200e+00
      vertex -1.503681e+00 2.222500e+01 0.000000e+00
    endloop
  endfacet
  facet normal -1.000000e+00 0.000000e+00 0.000000e+00
    outer loop
      vertex -8.729980e+00 -2.698750e+01 0.000000e+00
      vertex -8.729980e+00 -2.698750e+01 4.775200e+00
      vertex -8.729980e+00 -1.619250e+01 0.000000e+00
    endloop
  endfacet
  facet normal -1.000000e+00 0.000000e+00 0.000000e+00
    outer loop
      vertex -8.729980e+00 -1.619250e+01 0.000000e+00
      vertex -8.729980e+00 -2.698750e+01 4.775200e+00
      vertex -8.729980e+00 -1.619250e+01 4.775200e+00
    endloop
  endfacet
  facet normal -1.000000e+00 0.000000e+00 0.000000e+00
    outer loop
      vertex -8.729980e+00 -5.397499e+00 0.000000e+00
      vertex -8.729980e+00 -1.619250e+01 4.775200e+00
      vertex -8.729980e+00 -5.397499e+00 4.775200e+00
    endloop
  endfacet
  facet normal -1.000000e+00 0.000000e+00 0.000000e+00
    outer loop
      vertex -8.729980e+00 5.397499e+00 0.000000e+00
      vertex -8.729980e+00 -5.397499e+00 4.775200e+00
      vertex -8.729980e+00 5.397499e+00 4.775200e+00
    endloop
  endfacet
  facet normal -1.000000e+00 0.000000e+00 0.000000e+00
    outer loop
      vertex -8.729980e+00 1.619250e+01 0.000000e+00
      vertex -8.729980e+00 5.397499e+00 4.775200e+00
      vertex -8.729980e+00 1.619250e+01 4.775200e+00
    endloop
  endfacet
  facet normal -1.000000e+00 0.000000e+00 0.000000e+00
    outer loop
      vertex -8.729980e+00 2.698750e+01 0.000000e+00
      vertex -8.729980e+00 1.619250e+01 4.775200e+00
      vertex -8.729980e+00 2.698750e+01 4.775200e+00
    endloop
  endfacet
  facet normal -1.000000e+00 0.000000e+00 0.000000e+00
    outer loop
      vertex -8.729980e+00 2.698750e+01 0.000000e+00
      vertex -8.729980e+00 1.619250e+01 0.000000e+00
      vertex -8.729980e+00 1.619250e+01 4.775200e+00
    endloop
  endfacet
  facet normal -1.000000e+00 0.000000e+00 0.000000e+00
    outer loop
      vertex -8.729980e+00 -1.619250e+01 0.000000e+00
      vertex -8.729980e+00 -1.619250e+01 4.775200e+00
      vertex -8.729980e+00 -5.397499e+00 0.000000e+00
    endloop
  endfacet
  facet normal -1.000000e+00 0.000000e+00 0.000000e+00
    outer loop
      vertex -8.729980e+00 -5.397499e+00 0.000000e+00
      vertex -8.729980e+00 -5.397499e+00 4.775200e+00
      vertex -8.729980e+00 5.397499e+00 0.000000e+00
    endloop
  endfacet
  facet normal -1.000000e+00 0.000000e+00 0.000000e+00
    outer loop
      vertex -8.729980e+00 5.397499e+00 0.000000e+00
      vertex -8.729980e+00 5.397499e+00 4.775200e+00
      vertex -8.729980e+00 1.619250e+01 0.000000e+00
    endloop
  endfacet
  facet normal 0.000000e+00 1.000000e+00 0.000000e+00
    outer loop
      vertex -8.729980e+00 2.698750e+01 0.000000e+00
      vertex -8.729980e+00 2.698750e+01 4.775200e+00
      vertex 0.000000e+00 2.698750e+01 0.000000e+00
    endloop
  endfacet
  facet normal 0.000000e+00 1.000000e+00 0.000000e+00
    outer loop
      vertex 0.000000e+00 2.698750e+01 0.000000e+00
      vertex -8.729980e+00 2.698750e+01 4.775200e+00
      vertex 0.000000e+00 2.698750e+01 4.775200e+00
    endloop
  endfacet
  facet normal 0.000000e+00 1.000000e+00 0.000000e+00
    outer loop
      vertex 8.729980e+00 2.698750e+01 0.000000e+00
      vertex 0.000000e+00 2.698750e+01 4.775200e+00
      vertex 8.729980e+00 2.698750e+01 4.775200e+00
    endloop
  endfacet
  facet normal 0.000000e+00 1.000000e+00 0.000000e+00
    outer loop
      vertex 8.729980e+00 2.698750e+01 0.000000e+00
      vertex 0.000000e+00 2.698750e+01 0.000000e+00
      vertex 0.000000e+00 2.698750e+01 4.775200e+00
    endloop
  endfacet
  facet normal 1.000000e+00 0.000000e+00 0.000000e+00
    outer loop
      vertex 8.729980e+00 2.698750e+01 0.000000e+00
      vertex 8.729980e+00 2.698750e+01 4.775200e+00
      vertex 8.729980e+00 1.619250e+01 0.000000e+00
    endloop
  endfacet
  facet normal 1.000000e+00 0.000000e+00 0.000000e+00
    outer loop
      vertex 8.729980e+00 1.619250e+01 0.000000e+00
      vertex 8.729980e+00 2.698750e+01 4.775200e+00
      vertex 8.729980e+00 1.619250e+01 4.775200e+00
    endloop
  endfacet
  facet normal 1.000000e+00 0.000000e+00 0.000000e+00
    outer loop
      vertex 8.729980e+00 5.397499e+00 0.000000e+00
      vertex 8.729980e+00 1.619250e+01 4.775200e+00
      vertex 8.729980e+00 5.397499e+00 4.775200e+00
    endloop
  endfacet
  facet normal 1.000000e+00 0.000000e+00 0.000000e+00
    outer loop
      vertex 8.729980e+00 -5.397499e+00 0.000000e+00
      vertex 8.729980e+00 5.397499e+00 4.775200e+00
      vertex 8.729980e+00 -5.397499e+00 4.775200e+00
    endloop
  endfacet
  facet normal 1.000000e+00 0.000000e+00 0.000000e+00
    outer loop
      vertex 8.729980e+00 -1.619250e+01 0.000000e+00
      vertex 8.729980e+00 -5.397499e+00 4.775200e+00
      vertex 8.729980e+00 -1.619250e+01 4.775200e+00
    endloop
  endfacet
  facet normal 1.000000e+00 0.000000e+00 0.000000e+00
    outer loop
      vertex 8.729980e+00 -2.698750e+01 0.000000e+00
      vertex 8.729980e+00 -1.619250e+01 4.775200e+00
      vertex 8.729980e+00 -2.698750e+01 4.775200e+00
    endloop
  endfacet
  facet normal 1.000000e+00 0.000000e+00 0.000000e+00
    outer loop
      vertex 8.729980e+00 -2.698750e+01 0.000000e+00
      vertex 8.729980e+00 -1.619250e+01 0.000000e+00
      vertex 8.729980e+00 -1.619250e+01 4.775200e+00
    endloop
  endfacet
  facet normal 1.000000e+00 0.000000e+00 0.000000e+00
    outer loop
      vertex 8.729980e+00 1.619250e+01 0.000000e+00
      vertex 8.729980e+00 1.619250e+01 4.775200e+00
      vertex 8.729980e+00 5.397499e+00 0.000000e+00
    endloop
  endfacet
  facet normal 1.000000e+00 0.000000e+00 0.000000e+00
    outer loop
      vertex 8.729980e+00 5.397499e+00 0.000000e+00
      vertex 8.729980e+00 5.397499e+00 4.775200e+00
      vertex 8.729980e+00 -5.397499e+00 0.000000e+00
    endloop
  endfacet
  facet normal 1.000000e+00 0.000000e+00 0.000000e+00
    outer loop
      vertex 8.729980e+00 -5.397499e+00 0.000000e+00
      vertex 8.729980e+00 -5.397499e+00 4.775200e+00
      vertex 8.729980e+00 -1.619250e+01 0.000000e+00
    endloop
  endfacet
  facet normal 0.000000e+00 -1.000000e+00 0.000000e+00
    outer loop
      vertex 8.729980e+00 -2.698750e+01 0.000000e+00
      vertex 8.729980e+00 -2.698750e+01 4.775200e+00
      vertex 0.000000e+00 -2.698750e+01 0.000000e+00
    endloop
  endfacet
  facet normal 0.000000e+00 -1.000000e+00 0.000000e+00
    outer loop
      vertex 0.000000e+00 -2.698750e+01 0.000000e+00
      vertex 8.729980e+00 -2.698750e+01 4.775200e+00
      vertex 0.000000e+00 -2.698750e+01 4.775200e+00
    endloop
  endfacet
  facet normal 0.000000e+00 -1.000000e+00 0.000000e+00
    outer loop
      vertex -8.729980e+00 -2.698750e+01 0.000000e+00
      vertex 0.000000e+00 -2.698750e+01 4.775200e+00
      vertex -8.729980e+00 -2.698750e+01 4.775200e+00
    endloop
  endfacet
  facet normal 0.000000e+00 -1.000000e+00 0.000000e+00
    outer loop
      vertex -8.729980e+00 -2.698750e+01 0.000000e+00
      vertex 0.000000e+00 -2.698750e+01 0.000000e+00
      vertex 0.000000e+00 -2.698750e+01 4.775200e+00
    endloop
  endfacet
  facet normal 0.000000e+00 0.000000e+00 -1.000000e+00
    outer loop
      vertex -3.270559e-01 -2.375841e+01 0.000000e+00
      vertex 8.381939e-02 -2.381250e+01 0.000000e+00
      vertex 0.000000e+00 -2.698750e+01 0.000000e+00
    endloop
  endfacet
  facet normal -0.000000e+00 -0.000000e+00 -1.000000e+00
    outer loop
      vertex -7.099304e-01 -2.359982e+01 0.000000e+00
      vertex 0.000000e+00 -2.698750e+01 0.000000e+00
      vertex -1.038713e+00 -2.334753e+01 0.000000e+00
    endloop
  endfacet
  facet normal 0.000000e+00 0.000000e+00 -1.000000e+00
    outer loop
      vertex -7.099304e-01 -2.359982e+01 0.000000e+00
      vertex -3.270559e-01 -2.375841e+01 0.000000e+00
      vertex 0.000000e+00 -2.698750e+01 0.000000e+00
    endloop
  endfacet
  facet normal 0.000000e+00 0.000000e+00 -1.000000e+00
    outer loop
      vertex 8.381939e-02 -2.381250e+01 0.000000e+00
      vertex 4.946947e-01 -2.375841e+01 0.000000e+00
      vertex 0.000000e+00 -2.698750e+01 0.000000e+00
    endloop
  endfacet
  facet normal 0.000000e+00 0.000000e+00 -1.000000e+00
    outer loop
      vertex 0.000000e+00 -2.698750e+01 0.000000e+00
      vertex 4.946947e-01 -2.375841e+01 0.000000e+00
      vertex 8.775692e-01 -2.359982e+01 0.000000e+00
    endloop
  endfacet
  facet normal 0.000000e+00 0.000000e+00 -1.000000e+00
    outer loop
      vertex 1.206351e+00 -2.334753e+01 0.000000e+00
      vertex 0.000000e+00 -2.698750e+01 0.000000e+00
      vertex 8.775692e-01 -2.359982e+01 0.000000e+00
    endloop
  endfacet
  facet normal -0.000000e+00 -0.000000e+00 -1.000000e+00
    outer loop
      vertex 1.206351e+00 -2.334753e+01 0.000000e+00
      vertex 8.729980e+00 -2.698750e+01 0.000000e+00
      vertex 0.000000e+00 -2.698750e+01 0.000000e+00
    endloop
  endfacet
  facet normal 0.000000e+00 0.000000e+00 -1.000000e+00
    outer loop
      vertex 1.206351e+00 -2.334753e+01 0.000000e+00
      vertex 1.458639e+00 -2.301875e+01 0.000000e+00
      vertex 8.729980e+00 -2.698750e+01 0.000000e+00
    endloop
  endfacet
  facet normal 0.000000e+00 0.000000e+00 -1.000000e+00
    outer loop
      vertex 8.729980e+00 -2.698750e+01 0.000000e+00
      vertex 1.458639e+00 -2.301875e+01 0.000000e+00
      vertex 1.617229e+00 -2.263588e+01 0.000000e+00
    endloop
  endfacet
  facet normal -0.000000e+00 -0.000000e+00 -1.000000e+00
    outer loop
      vertex 1.671320e+00 -2.222500e+01 0.000000e+00
      vertex 8.729980e+00 -2.698750e+01 0.000000e+00
      vertex 1.617229e+00 -2.263588e+01 0.000000e+00
    endloop
  endfacet
  facet normal 0.000000e+00 0.000000e+00 -1.000000e+00
    outer loop
      vertex 1.671320e+00 -2.222500e+01 0.000000e+00
      vertex 8.729980e+00 -1.619250e+01 0.000000e+00
      vertex 8.729980e+00 -2.698750e+01 0.000000e+00
    endloop
  endfacet
  facet normal 0.000000e+00 0.000000e+00 -1.000000e+00
    outer loop
      vertex 1.671320e+00 -2.222500e+01 0.000000e+00
      vertex 1.617229e+00 -2.181412e+01 0.000000e+00
      vertex 8.729980e+00 -1.619250e+01 0.000000e+00
    endloop
  endfacet
  facet normal 0.000000e+00 0.000000e+00 -1.000000e+00
    outer loop
      vertex 8.729980e+00 -1.619250e+01 0.000000e+00
      vertex 1.617229e+00 -2.181412e+01 0.000000e+00
      vertex 1.458639e+00 -2.143125e+01 0.000000e+00
    endloop
  endfacet
  facet normal 0.000000e+00 0.000000e+00 -1.000000e+00
    outer loop
      vertex 1.206351e+00 -2.110247e+01 0.000000e+00
      vertex 8.729980e+00 -1.619250e+01 0.000000e+00
      vertex 1.458639e+00 -2.143125e+01 0.000000e+00
    endloop
  endfacet
  facet normal 0.000000e+00 0.000000e+00 -1.000000e+00
    outer loop
      vertex 1.206351e+00 -2.110247e+01 0.000000e+00
      vertex 0.000000e+00 -1.619250e+01 0.000000e+00
      vertex 8.729980e+00 -1.619250e+01 0.000000e+00
    endloop
  endfacet
  facet normal 0.000000e+00 0.000000e+00 -1.000000e+00
    outer loop
      vertex 1.206351e+00 -2.110247e+01 0.000000e+00
      vertex 8.775692e-01 -2.085018e+01 0.000000e+00
      vertex 0.000000e+00 -1.619250e+01 0.000000e+00
    endloop
  endfacet
  facet normal -0.000000e+00 -0.000000e+00 -1.000000e+00
    outer loop
      vertex 0.000000e+00 -1.619250e+01 0.000000e+00
      vertex 8.775692e-01 -2.085018e+01 0.000000e+00
      vertex 4.946947e-01 -2.069159e+01 0.000000e+00
    endloop
  endfacet
  facet normal 0.000000e+00 0.000000e+00 -1.000000e+00
    outer loop
      vertex 8.381939e-02 -2.063750e+01 0.000000e+00
      vertex 0.000000e+00 -1.619250e+01 0.000000e+00
      vertex 4.946947e-01 -2.069159e+01 0.000000e+00
    endloop
  endfacet
  facet normal 0.000000e+00 0.000000e+00 -1.000000e+00
    outer loop
      vertex 8.381939e-02 -2.063750e+01 0.000000e+00
      vertex -3.270559e-01 -2.069159e+01 0.000000e+00
      vertex 0.000000e+00 -1.619250e+01 0.000000e+00
    endloop
  endfacet
  facet normal 0.000000e+00 0.000000e+00 -1.000000e+00
    outer loop
      vertex 0.000000e+00 -1.619250e+01 0.000000e+00
      vertex -3.270559e-01 -2.069159e+01 0.000000e+00
      vertex -7.099304e-01 -2.085018e+01 0.000000e+00
    endloop
  endfacet
  facet normal 0.000000e+00 0.000000e+00 -1.000000e+00
    outer loop
      vertex -1.038713e+00 -2.110247e+01 0.000000e+00
      vertex 0.000000e+00 -1.619250e+01 0.000000e+00
      vertex -7.099304e-01 -2.085018e+01 0.000000e+00
    endloop
  endfacet
  facet normal 0.000000e+00 0.000000e+00 -1.000000e+00
    outer loop
      vertex -1.038713e+00 -2.110247e+01 0.000000e+00
      vertex -8.729980e+00 -1.619250e+01 0.000000e+00
      vertex 0.000000e+00 -1.619250e+01 0.000000e+00
    endloop
  endfacet
  facet normal 0.000000e+00 0.000000e+00 -1.000000e+00
    outer loop
      vertex -1.038713e+00 -2.110247e+01 0.000000e+00
      vertex -1.290996e+00 -2.143125e+01 0.000000e+00
      vertex -8.729980e+00 -1.619250e+01 0.000000e+00
    endloop
  endfacet
  facet normal 0.000000e+00 0.000000e+00 -1.000000e+00
    outer loop
      vertex -8.729980e+00 -1.619250e+01 0.000000e+00
      vertex -1.290996e+00 -2.143125e+01 0.000000e+00
      vertex -1.449587e+00 -2.181412e+01 0.000000e+00
    endloop
  endfacet
  facet normal 0.000000e+00 0.000000e+00 -1.000000e+00
    outer loop
      vertex -1.503681e+00 -2.222500e+01 0.000000e+00
      vertex -8.729980e+00 -1.619250e+01 0.000000e+00
      vertex -1.449587e+00 -2.181412e+01 0.000000e+00
    endloop
  endfacet
  facet normal 0.000000e+00 0.000000e+00 -1.000000e+00
    outer loop
      vertex -1.503681e+00 -2.222500e+01 0.000000e+00
      vertex -8.729980e+00 -2.698750e+01 0.000000e+00
      vertex -8.729980e+00 -1.619250e+01 0.000000e+00
    endloop
  endfacet
  facet normal 0.000000e+00 0.000000e+00 -1.000000e+00
    outer loop
      vertex -1.503681e+00 -2.222500e+01 0.000000e+00
      vertex -1.449587e+00 -2.263588e+01 0.000000e+00
      vertex -8.729980e+00 -2.698750e+01 0.000000e+00
    endloop
  endfacet
  facet normal 0.000000e+00 0.000000e+00 -1.000000e+00
    outer loop
      vertex -8.729980e+00 -2.698750e+01 0.000000e+00
      vertex -1.449587e+00 -2.263588e+01 0.000000e+00
      vertex -1.290996e+00 -2.301875e+01 0.000000e+00
    endloop
  endfacet
  facet normal 0.000000e+00 0.000000e+00 -1.000000e+00
    outer loop
      vertex 0.000000e+00 -2.698750e+01 0.000000e+00
      vertex -1.290996e+00 -2.301875e+01 0.000000e+00
      vertex -1.038713e+00 -2.334753e+01 0.000000e+00
    endloop
  endfacet
  facet normal 0.000000e+00 0.000000e+00 -1.000000e+00
    outer loop
      vertex 0.000000e+00 -2.698750e+01 0.000000e+00
      vertex -8.729980e+00 -2.698750e+01 0.000000e+00
      vertex -1.290996e+00 -2.301875e+01 0.000000e+00
    endloop
  endfacet
  facet normal 0.000000e+00 0.000000e+00 -1.000000e+00
    outer loop
      vertex -1.449587e+00 2.181412e+01 0.000000e+00
      vertex -8.729980e+00 1.619250e+01 0.000000e+00
      vertex -1.503681e+00 2.222500e+01 0.000000e+00
    endloop
  endfacet
  facet normal 0.000000e+00 0.000000e+00 -1.000000e+00
    outer loop
      vertex -1.449587e+00 2.181412e+01 0.000000e+00
      vertex -1.290996e+00 2.143125e+01 0.000000e+00
      vertex -8.729980e+00 1.619250e+01 0.000000e+00
    endloop
  endfacet
  facet normal 0.000000e+00 0.000000e+00 -1.000000e+00
    outer loop
      vertex -8.729980e+00 1.619250e+01 0.000000e+00
      vertex -1.290996e+00 2.143125e+01 0.000000e+00
      vertex -1.038713e+00 2.110247e+01 0.000000e+00
    endloop
  endfacet
  facet normal 0.000000e+00 0.000000e+00 -1.000000e+00
    outer loop
      vertex 0.000000e+00 1.619250e+01 0.000000e+00
      vertex -1.038713e+00 2.110247e+01 0.000000e+00
      vertex -7.099304e-01 2.085018e+01 0.000000e+00
    endloop
  endfacet
  facet normal -0.000000e+00 -0.000000e+00 -1.000000e+00
    outer loop
      vertex -3.270559e-01 2.069159e+01 0.000000e+00
      vertex 0.000000e+00 1.619250e+01 0.000000e+00
      vertex -7.099304e-01 2.085018e+01 0.000000e+00
    endloop
  endfacet
  facet normal 0.000000e+00 0.000000e+00 -1.000000e+00
    outer loop
      vertex -3.270559e-01 2.069159e+01 0.000000e+00
      vertex 8.381939e-02 2.063750e+01 0.000000e+00
      vertex 0.000000e+00 1.619250e+01 0.000000e+00
    endloop
  endfacet
  facet normal 0.000000e+00 0.000000e+00 -1.000000e+00
    outer loop
      vertex 0.000000e+00 1.619250e+01 0.000000e+00
      vertex 8.381939e-02 2.063750e+01 0.000000e+00
      vertex 4.946947e-01 2.069159e+01 0.000000e+00
    endloop
  endfacet
  facet normal 0.000000e+00 0.000000e+00 -1.000000e+00
    outer loop
      vertex 8.775692e-01 2.085018e+01 0.000000e+00
      vertex 0.000000e+00 1.619250e+01 0.000000e+00
      vertex 4.946947e-01 2.069159e+01 0.000000e+00
    endloop
  endfacet
  facet normal 0.000000e+00 0.000000e+00 -1.000000e+00
    outer loop
      vertex 8.775692e-01 2.085018e+01 0.000000e+00
      vertex 1.206351e+00 2.110247e+01 0.000000e+00
      vertex 0.000000e+00 1.619250e+01 0.000000e+00
    endloop
  endfacet
  facet normal 0.000000e+00 0.000000e+00 -1.000000e+00
    outer loop
      vertex 0.000000e+00 1.619250e+01 0.000000e+00
      vertex 1.206351e+00 2.110247e+01 0.000000e+00
      vertex 8.729980e+00 1.619250e+01 0.000000e+00
    endloop
  endfacet
  facet normal 0.000000e+00 0.000000e+00 -1.000000e+00
    outer loop
      vertex 0.000000e+00 5.397499e+00 0.000000e+00
      vertex 8.729980e+00 1.619250e+01 0.000000e+00
      vertex 8.729980e+00 5.397499e+00 0.000000e+00
    endloop
  endfacet
  facet normal 0.000000e+00 0.000000e+00 -1.000000e+00
    outer loop
      vertex 0.000000e+00 -5.397499e+00 0.000000e+00
      vertex 8.729980e+00 5.397499e+00 0.000000e+00
      vertex 8.729980e+00 -5.397499e+00 0.000000e+00
    endloop
  endfacet
  facet normal 0.000000e+00 0.000000e+00 -1.000000e+00
    outer loop
      vertex 0.000000e+00 -1.619250e+01 0.000000e+00
      vertex 8.729980e+00 -5.397499e+00 0.000000e+00
      vertex 8.729980e+00 -1.619250e+01 0.000000e+00
    endloop
  endfacet
  facet normal 0.000000e+00 0.000000e+00 -1.000000e+00
    outer loop
      vertex 0.000000e+00 -1.619250e+01 0.000000e+00
      vertex 0.000000e+00 -5.397499e+00 0.000000e+00
      vertex 8.729980e+00 -5.397499e+00 0.000000e+00
    endloop
  endfacet
  facet normal 0.000000e+00 0.000000e+00 -1.000000e+00
    outer loop
      vertex 0.000000e+00 -1.619250e+01 0.000000e+00
      vertex -8.729980e+00 -1.619250e+01 0.000000e+00
      vertex 0.000000e+00 -5.397499e+00 0.000000e+00
    endloop
  endfacet
  facet normal 0.000000e+00 0.000000e+00 -1.000000e+00
    outer loop
      vertex 0.000000e+00 -5.397499e+00 0.000000e+00
      vertex -8.729980e+00 -1.619250e+01 0.000000e+00
      vertex -8.729980e+00 -5.397499e+00 0.000000e+00
    endloop
  endfacet
  facet normal 0.000000e+00 0.000000e+00 -1.000000e+00
    outer loop
      vertex 0.000000e+00 5.397499e+00 0.000000e+00
      vertex -8.729980e+00 -5.397499e+00 0.000000e+00
      vertex -8.729980e+00 5.397499e+00 0.000000e+00
    endloop
  endfacet
  facet normal 0.000000e+00 0.000000e+00 -1.000000e+00
    outer loop
      vertex 0.000000e+00 1.619250e+01 0.000000e+00
      vertex -8.729980e+00 5.397499e+00 0.000000e+00
      vertex -8.729980e+00 1.619250e+01 0.000000e+00
    endloop
  endfacet
  facet normal -0.000000e+00 -0.000000e+00 -1.000000e+00
    outer loop
      vertex -1.038713e+00 2.110247e+01 0.000000e+00
      vertex 0.000000e+00 1.619250e+01 0.000000e+00
      vertex -8.729980e+00 1.619250e+01 0.000000e+00
    endloop
  endfacet
  facet normal 0.000000e+00 0.000000e+00 -1.000000e+00
    outer loop
      vertex 1.206351e+00 2.110247e+01 0.000000e+00
      vertex 1.458639e+00 2.143125e+01 0.000000e+00
      vertex 8.729980e+00 1.619250e+01 0.000000e+00
    endloop
  endfacet
  facet normal 0.000000e+00 0.000000e+00 -1.000000e+00
    outer loop
      vertex 8.729980e+00 1.619250e+01 0.000000e+00
      vertex 1.458639e+00 2.143125e+01 0.000000e+00
      vertex 1.617229e+00 2.181412e+01 0.000000e+00
    endloop
  endfacet
  facet normal -0.000000e+00 -0.000000e+00 -1.000000e+00
    outer loop
      vertex 1.671320e+00 2.222500e+01 0.000000e+00
      vertex 8.729980e+00 1.619250e+01 0.000000e+00
      vertex 1.617229e+00 2.181412e+01 0.000000e+00
    endloop
  endfacet
  facet normal 0.000000e+00 0.000000e+00 -1.000000e+00
    outer loop
      vertex 1.671320e+00 2.222500e+01 0.000000e+00
      vertex 8.729980e+00 2.698750e+01 0.000000e+00
      vertex 8.729980e+00 1.619250e+01 0.000000e+00
    endloop
  endfacet
  facet normal 0.000000e+00 0.000000e+00 -1.000000e+00
    outer loop
      vertex 1.671320e+00 2.222500e+01 0.000000e+00
      vertex 1.617229e+00 2.263587e+01 0.000000e+00
      vertex 8.729980e+00 2.698750e+01 0.000000e+00
    endloop
  endfacet
  facet normal 0.000000e+00 0.000000e+00 -1.000000e+00
    outer loop
      vertex 8.729980e+00 2.698750e+01 0.000000e+00
      vertex 1.617229e+00 2.263587e+01 0.000000e+00
      vertex 1.458639e+00 2.301875e+01 0.000000e+00
    endloop
  endfacet
  facet normal 0.000000e+00 0.000000e+00 -1.000000e+00
    outer loop
      vertex 1.206351e+00 2.334753e+01 0.000000e+00
      vertex 8.729980e+00 2.698750e+01 0.000000e+00
      vertex 1.458639e+00 2.301875e+01 0.000000e+00
    endloop
  endfacet
  facet normal 0.000000e+00 0.000000e+00 -1.000000e+00
    outer loop
      vertex 1.206351e+00 2.334753e+01 0.000000e+00
      vertex 0.000000e+00 2.698750e+01 0.000000e+00
      vertex 8.729980e+00 2.698750e+01 0.000000e+00
    endloop
  endfacet
  facet normal 0.000000e+00 0.000000e+00 -1.000000e+00
    outer loop
      vertex 1.206351e+00 2.334753e+01 0.000000e+00
      vertex 8.775692e-01 2.359981e+01 0.000000e+00
      vertex 0.000000e+00 2.698750e+01 0.000000e+00
    endloop
  endfacet
  facet normal -0.000000e+00 -0.000000e+00 -1.000000e+00
    outer loop
      vertex 0.000000e+00 2.698750e+01 0.000000e+00
      vertex 8.775692e-01 2.359981e+01 0.000000e+00
      vertex 4.946947e-01 2.375841e+01 0.000000e+00
    endloop
  endfacet
  facet normal 0.000000e+00 0.000000e+00 -1.000000e+00
    outer loop
      vertex 8.381939e-02 2.381250e+01 0.000000e+00
      vertex 0.000000e+00 2.698750e+01 0.000000e+00
      vertex 4.946947e-01 2.375841e+01 0.000000e+00
    endloop
  endfacet
  facet normal 0.000000e+00 0.000000e+00 -1.000000e+00
    outer loop
      vertex 8.381939e-02 2.381250e+01 0.000000e+00
      vertex -3.270559e-01 2.375841e+01 0.000000e+00
      vertex 0.000000e+00 2.698750e+01 0.000000e+00
    endloop
  endfacet
  facet normal 0.000000e+00 0.000000e+00 -1.000000e+00
    outer loop
      vertex 0.000000e+00 2.698750e+01 0.000000e+00
      vertex -3.270559e-01 2.375841e+01 0.000000e+00
      vertex -7.099304e-01 2.359981e+01 0.000000e+00
    endloop
  endfacet
  facet normal 0.000000e+00 0.000000e+00 -1.000000e+00
    outer loop
      vertex -1.038713e+00 2.334753e+01 0.000000e+00
      vertex 0.000000e+00 2.698750e+01 0.000000e+00
      vertex -7.099304e-01 2.359981e+01 0.000000e+00
    endloop
  endfacet
  facet normal 0.000000e+00 0.000000e+00 -1.000000e+00
    outer loop
      vertex -1.038713e+00 2.334753e+01 0.000000e+00
      vertex -1.290996e+00 2.301875e+01 0.000000e+00
      vertex 0.000000e+00 2.698750e+01 0.000000e+00
    endloop
  endfacet
  facet normal 0.000000e+00 0.000000e+00 -1.000000e+00
    outer loop
      vertex 0.000000e+00 2.698750e+01 0.000000e+00
      vertex -1.290996e+00 2.301875e+01 0.000000e+00
      vertex -8.729980e+00 2.698750e+01 0.000000e+00
    endloop
  endfacet
  facet normal 0.000000e+00 0.000000e+00 -1.000000e+00
    outer loop
      vertex -8.729980e+00 2.698750e+01 0.000000e+00
      vertex -1.290996e+00 2.301875e+01 0.000000e+00
      vertex -1.449587e+00 2.263587e+01 0.000000e+00
    endloop
  endfacet
  facet normal 0.000000e+00 0.000000e+00 -1.000000e+00
    outer loop
      vertex -1.503681e+00 2.222500e+01 0.000000e+00
      vertex -8.729980e+00 2.698750e+01 0.000000e+00
      vertex -1.449587e+00 2.263587e+01 0.000000e+00
    endloop
  endfacet
  facet normal 0.000000e+00 0.000000e+00 -1.000000e+00
    outer loop
      vertex -1.503681e+00 2.222500e+01 0.000000e+00
      vertex -8.729980e+00 1.619250e+01 0.000000e+00
      vertex -8.729980e+00 2.698750e+01 0.000000e+00
    endloop
  endfacet
  facet normal 0.000000e+00 0.000000e+00 -1.000000e+00
    outer loop
      vertex 0.000000e+00 -5.397499e+00 0.000000e+00
      vertex -8.729980e+00 -5.397499e+00 0.000000e+00
      vertex 0.000000e+00 5.397499e+00 0.000000e+00
    endloop
  endfacet
  facet normal 0.000000e+00 0.000000e+00 -1.000000e+00
    outer loop
      vertex 8.729980e+00 5.397499e+00 0.000000e+00
      vertex 0.000000e+00 -5.397499e+00 0.000000e+00
      vertex 0.000000e+00 5.397499e+00 0.000000e+00
    endloop
  endfacet
  facet normal 0.000000e+00 0.000000e+00 -1.000000e+00
    outer loop
      vertex 0.000000e+00 5.397499e+00 0.000000e+00
      vertex -8.729980e+00 5.397499e+00 0.000000e+00
      vertex 0.000000e+00 1.619250e+01 0.000000e+00
    endloop
  endfacet
  facet normal 0.000000e+00 0.000000e+00 -1.000000e+00
    outer loop
      vertex 8.729980e+00 1.619250e+01 0.000000e+00
      vertex 0.000000e+00 5.397499e+00 0.000000e+00
      vertex 0.000000e+00 1.619250e+01 0.000000e+00
    endloop
  endfacet
  facet normal 0.000000e+00 0.000000e+00 1.000000e+00
    outer loop
      vertex 4.946947e-01 -2.375841e+01 4.775200e+00
      vertex 8.381939e-02 -2.381250e+01 4.775200e+00
      vertex 0.000000e+00 -2.698750e+01 4.775200e+00
    endloop
  endfacet
  facet normal 0.000000e+00 0.000000e+00 1.000000e+00
    outer loop
      vertex 8.775692e-01 -2.359982e+01 4.775200e+00
      vertex 0.000000e+00 -2.698750e+01 4.775200e+00
      vertex 1.206351e+00 -2.334753e+01 4.775200e+00
    endloop
  endfacet
  facet normal 0.000000e+00 0.000000e+00 1.000000e+00
    outer loop
      vertex 8.775692e-01 -2.359982e+01 4.775200e+00
      vertex 4.946947e-01 -2.375841e+01 4.775200e+00
      vertex 0.000000e+00 -2.698750e+01 4.775200e+00
    endloop
  endfacet
  facet normal 0.000000e+00 0.000000e+00 1.000000e+00
    outer loop
      vertex 8.381939e-02 -2.381250e+01 4.775200e+00
      vertex -3.270559e-01 -2.375841e+01 4.775200e+00
      vertex 0.000000e+00 -2.698750e+01 4.775200e+00
    endloop
  endfacet
  facet normal 0.000000e+00 0.000000e+00 1.000000e+00
    outer loop
      vertex 0.000000e+00 -2.698750e+01 4.775200e+00
      vertex -3.270559e-01 -2.375841e+01 4.775200e+00
      vertex -7.099304e-01 -2.359982e+01 4.775200e+00
    endloop
  endfacet
  facet normal 0.000000e+00 0.000000e+00 1.000000e+00
    outer loop
      vertex -1.038713e+00 -2.334753e+01 4.775200e+00
      vertex 0.000000e+00 -2.698750e+01 4.775200e+00
      vertex -7.099304e-01 -2.359982e+01 4.775200e+00
    endloop
  endfacet
  facet normal 0.000000e+00 0.000000e+00 1.000000e+00
    outer loop
      vertex -1.038713e+00 -2.334753e+01 4.775200e+00
      vertex -1.290996e+00 -2.301875e+01 4.775200e+00
      vertex 0.000000e+00 -2.698750e+01 4.775200e+00
    endloop
  endfacet
  facet normal 0.000000e+00 0.000000e+00 1.000000e+00
    outer loop
      vertex 0.000000e+00 -2.698750e+01 4.775200e+00
      vertex -1.290996e+00 -2.301875e+01 4.775200e+00
      vertex -8.729980e+00 -2.698750e+01 4.775200e+00
    endloop
  endfacet
  facet normal 0.000000e+00 0.000000e+00 1.000000e+00
    outer loop
      vertex -8.729980e+00 -2.698750e+01 4.775200e+00
      vertex -1.290996e+00 -2.301875e+01 4.775200e+00
      vertex -1.449587e+00 -2.263588e+01 4.775200e+00
    endloop
  endfacet
  facet normal 0.000000e+00 0.000000e+00 1.000000e+00
    outer loop
      vertex -1.503681e+00 -2.222500e+01 4.775200e+00
      vertex -8.729980e+00 -2.698750e+01 4.775200e+00
      vertex -1.449587e+00 -2.263588e+01 4.775200e+00
    endloop
  endfacet
  facet normal 0.000000e+00 0.000000e+00 1.000000e+00
    outer loop
      vertex -1.503681e+00 -2.222500e+01 4.775200e+00
      vertex -8.729980e+00 -1.619250e+01 4.775200e+00
      vertex -8.729980e+00 -2.698750e+01 4.775200e+00
    endloop
  endfacet
  facet normal 0.000000e+00 0.000000e+00 1.000000e+00
    outer loop
      vertex -1.503681e+00 -2.222500e+01 4.775200e+00
      vertex -1.449587e+00 -2.181412e+01 4.775200e+00
      vertex -8.729980e+00 -1.619250e+01 4.775200e+00
    endloop
  endfacet
  facet normal 0.000000e+00 0.000000e+00 1.000000e+00
    outer loop
      vertex -8.729980e+00 -1.619250e+01 4.775200e+00
      vertex -1.449587e+00 -2.181412e+01 4.775200e+00
      vertex -1.290996e+00 -2.143125e+01 4.775200e+00
    endloop
  endfacet
  facet normal 0.000000e+00 0.000000e+00 1.000000e+00
    outer loop
      vertex -1.038713e+00 -2.110247e+01 4.775200e+00
      vertex -8.729980e+00 -1.619250e+01 4.775200e+00
      vertex -1.290996e+00 -2.143125e+01 4.775200e+00
    endloop
  endfacet
  facet normal 0.000000e+00 0.000000e+00 1.000000e+00
    outer loop
      vertex -1.038713e+00 -2.110247e+01 4.775200e+00
      vertex 0.000000e+00 -1.619250e+01 4.775200e+00
      vertex -8.729980e+00 -1.619250e+01 4.775200e+00
    endloop
  endfacet
  facet normal 0.000000e+00 0.000000e+00 1.000000e+00
    outer loop
      vertex -1.038713e+00 -2.110247e+01 4.775200e+00
      vertex -7.099304e-01 -2.085018e+01 4.775200e+00
      vertex 0.000000e+00 -1.619250e+01 4.775200e+00
    endloop
  endfacet
  facet normal 0.000000e+00 0.000000e+00 1.000000e+00
    outer loop
      vertex 0.000000e+00 -1.619250e+01 4.775200e+00
      vertex -7.099304e-01 -2.085018e+01 4.775200e+00
      vertex -3.270559e-01 -2.069159e+01 4.775200e+00
    endloop
  endfacet
  facet normal 0.000000e+00 0.000000e+00 1.000000e+00
    outer loop
      vertex 8.381939e-02 -2.063750e+01 4.775200e+00
      vertex 0.000000e+00 -1.619250e+01 4.775200e+00
      vertex -3.270559e-01 -2.069159e+01 4.775200e+00
    endloop
  endfacet
  facet normal 0.000000e+00 0.000000e+00 1.000000e+00
    outer loop
      vertex 8.381939e-02 -2.063750e+01 4.775200e+00
      vertex 4.946947e-01 -2.069159e+01 4.775200e+00
      vertex 0.000000e+00 -1.619250e+01 4.775200e+00
    endloop
  endfacet
  facet normal 0.000000e+00 0.000000e+00 1.000000e+00
    outer loop
      vertex 0.000000e+00 -1.619250e+01 4.775200e+00
      vertex 4.946947e-01 -2.069159e+01 4.775200e+00
      vertex 8.775692e-01 -2.085018e+01 4.775200e+00
    endloop
  endfacet
  facet normal 0.000000e+00 0.000000e+00 1.000000e+00
    outer loop
      vertex 1.206351e+00 -2.110247e+01 4.775200e+00
      vertex 0.000000e+00 -1.619250e+01 4.775200e+00
      vertex 8.775692e-01 -2.085018e+01 4.775200e+00
    endloop
  endfacet
  facet normal 0.000000e+00 0.000000e+00 1.000000e+00
    outer loop
      vertex 1.206351e+00 -2.110247e+01 4.775200e+00
      vertex 8.729980e+00 -1.619250e+01 4.775200e+00
      vertex 0.000000e+00 -1.619250e+01 4.775200e+00
    endloop
  endfacet
  facet normal 0.000000e+00 0.000000e+00 1.000000e+00
    outer loop
      vertex 1.206351e+00 -2.110247e+01 4.775200e+00
      vertex 1.458639e+00 -2.143125e+01 4.775200e+00
      vertex 8.729980e+00 -1.619250e+01 4.775200e+00
    endloop
  endfacet
  facet normal 0.000000e+00 0.000000e+00 1.000000e+00
    outer loop
      vertex 8.729980e+00 -1.619250e+01 4.775200e+00
      vertex 1.458639e+00 -2.143125e+01 4.775200e+00
      vertex 1.617229e+00 -2.181412e+01 4.775200e+00
    endloop
  endfacet
  facet normal 0.000000e+00 0.000000e+00 1.000000e+00
    outer loop
      vertex 1.671320e+00 -2.222500e+01 4.775200e+00
      vertex 8.729980e+00 -1.619250e+01 4.775200e+00
      vertex 1.617229e+00 -2.181412e+01 4.775200e+00
    endloop
  endfacet
  facet normal 0.000000e+00 0.000000e+00 1.000000e+00
    outer loop
      vertex 1.671320e+00 -2.222500e+01 4.775200e+00
      vertex 8.729980e+00 -2.698750e+01 4.775200e+00
      vertex 8.729980e+00 -1.619250e+01 4.775200e+00
    endloop
  endfacet
  facet normal 0.000000e+00 0.000000e+00 1.000000e+00
    outer loop
      vertex 1.671320e+00 -2.222500e+01 4.775200e+00
      vertex 1.617229e+00 -2.263588e+01 4.775200e+00
      vertex 8.729980e+00 -2.698750e+01 4.775200e+00
    endloop
  endfacet
  facet normal 0.000000e+00 0.000000e+00 1.000000e+00
    outer loop
      vertex 8.729980e+00 -2.698750e+01 4.775200e+00
      vertex 1.617229e+00 -2.263588e+01 4.775200e+00
      vertex 1.458639e+00 -2.301875e+01 4.775200e+00
    endloop
  endfacet
  facet normal 0.000000e+00 0.000000e+00 1.000000e+00
    outer loop
      vertex 1.206351e+00 -2.334753e+01 4.775200e+00
      vertex 8.729980e+00 -2.698750e+01 4.775200e+00
      vertex 1.458639e+00 -2.301875e+01 4.775200e+00
    endloop
  endfacet
  facet normal 0.000000e+00 0.000000e+00 1.000000e+00
    outer loop
      vertex 1.206351e+00 -2.334753e+01 4.775200e+00
      vertex 0.000000e+00 -2.698750e+01 4.775200e+00
      vertex 8.729980e+00 -2.698750e+01 4.775200e+00
    endloop
  endfacet
  facet normal 0.000000e+00 0.000000e+00 1.000000e+00
    outer loop
      vertex -1.449587e+00 2.263587e+01 4.775200e+00
      vertex -8.729980e+00 2.698750e+01 4.775200e+00
      vertex -1.503681e+00 2.222500e+01 4.775200e+00
    endloop
  endfacet
  facet normal 0.000000e+00 0.000000e+00 1.000000e+00
    outer loop
      vertex -1.449587e+00 2.263587e+01 4.775200e+00
      vertex -1.290996e+00 2.301875e+01 4.775200e+00
      vertex -8.729980e+00 2.698750e+01 4.775200e+00
    endloop
  endfacet
  facet normal 0.000000e+00 0.000000e+00 1.000000e+00
    outer loop
      vertex -8.729980e+00 2.698750e+01 4.775200e+00
      vertex -1.290996e+00 2.301875e+01 4.775200e+00
      vertex 0.000000e+00 2.698750e+01 4.775200e+00
    endloop
  endfacet
  facet normal 0.000000e+00 0.000000e+00 1.000000e+00
    outer loop
      vertex 0.000000e+00 2.698750e+01 4.775200e+00
      vertex -1.290996e+00 2.301875e+01 4.775200e+00
      vertex -1.038713e+00 2.334753e+01 4.775200e+00
    endloop
  endfacet
  facet normal 0.000000e+00 0.000000e+00 1.000000e+00
    outer loop
      vertex -7.099304e-01 2.359981e+01 4.775200e+00
      vertex 0.000000e+00 2.698750e+01 4.775200e+00
      vertex -1.038713e+00 2.334753e+01 4.775200e+00
    endloop
  endfacet
  facet normal 0.000000e+00 0.000000e+00 1.000000e+00
    outer loop
      vertex -7.099304e-01 2.359981e+01 4.775200e+00
      vertex -3.270559e-01 2.375841e+01 4.775200e+00
      vertex 0.000000e+00 2.698750e+01 4.775200e+00
    endloop
  endfacet
  facet normal 0.000000e+00 0.000000e+00 1.000000e+00
    outer loop
      vertex 0.000000e+00 2.698750e+01 4.775200e+00
      vertex -3.270559e-01 2.375841e+01 4.775200e+00
      vertex 8.381939e-02 2.381250e+01 4.775200e+00
    endloop
  endfacet
  facet normal 0.000000e+00 0.000000e+00 1.000000e+00
    outer loop
      vertex 4.946947e-01 2.375841e+01 4.775200e+00
      vertex 0.000000e+00 2.698750e+01 4.775200e+00
      vertex 8.381939e-02 2.381250e+01 4.775200e+00
    endloop
  endfacet
  facet normal 0.000000e+00 0.000000e+00 1.000000e+00
    outer loop
      vertex 4.946947e-01 2.375841e+01 4.775200e+00
      vertex 8.775692e-01 2.359981e+01 4.775200e+00
      vertex 0.000000e+00 2.698750e+01 4.775200e+00
    endloop
  endfacet
  facet normal 0.000000e+00 0.000000e+00 1.000000e+00
    outer loop
      vertex 0.000000e+00 2.698750e+01 4.775200e+00
      vertex 8.775692e-01 2.359981e+01 4.775200e+00
      vertex 1.206351e+00 2.334753e+01 4.775200e+00
    endloop
  endfacet
  facet normal 0.000000e+00 0.000000e+00 1.000000e+00
    outer loop
      vertex 8.729980e+00 2.698750e+01 4.775200e+00
      vertex 1.206351e+00 2.334753e+01 4.775200e+00
      vertex 1.458639e+00 2.301875e+01 4.775200e+00
    endloop
  endfacet
  facet normal 0.000000e+00 0.000000e+00 1.000000e+00
    outer loop
      vertex 1.617229e+00 2.263587e+01 4.775200e+00
      vertex 8.729980e+00 2.698750e+01 4.775200e+00
      vertex 1.458639e+00 2.301875e+01 4.775200e+00
    endloop
  endfacet
  facet normal 0.000000e+00 0.000000e+00 1.000000e+00
    outer loop
      vertex 1.617229e+00 2.263587e+01 4.775200e+00
      vertex 1.671320e+00 2.222500e+01 4.775200e+00
      vertex 8.729980e+00 2.698750e+01 4.775200e+00
    endloop
  endfacet
  facet normal 0.000000e+00 0.000000e+00 1.000000e+00
    outer loop
      vertex 8.729980e+00 2.698750e+01 4.775200e+00
      vertex 1.671320e+00 2.222500e+01 4.775200e+00
      vertex 8.729980e+00 1.619250e+01 4.775200e+00
    endloop
  endfacet
  facet normal 0.000000e+00 0.000000e+00 1.000000e+00
    outer loop
      vertex 8.729980e+00 1.619250e+01 4.775200e+00
      vertex 1.671320e+00 2.222500e+01 4.775200e+00
      vertex 1.617229e+00 2.181412e+01 4.775200e+00
    endloop
  endfacet
  facet normal 0.000000e+00 0.000000e+00 1.000000e+00
    outer loop
      vertex 1.458639e+00 2.143125e+01 4.775200e+00
      vertex 8.729980e+00 1.619250e+01 4.775200e+00
      vertex 1.617229e+00 2.181412e+01 4.775200e+00
    endloop
  endfacet
  facet normal 0.000000e+00 0.000000e+00 1.000000e+00
    outer loop
      vertex 1.458639e+00 2.143125e+01 4.775200e+00
      vertex 1.206351e+00 2.110247e+01 4.775200e+00
      vertex 8.729980e+00 1.619250e+01 4.775200e+00
    endloop
  endfacet
  facet normal 0.000000e+00 0.000000e+00 1.000000e+00
    outer loop
      vertex 8.729980e+00 1.619250e+01 4.775200e+00
      vertex 1.206351e+00 2.110247e+01 4.775200e+00
      vertex 0.000000e+00 1.619250e+01 4.775200e+00
    endloop
  endfacet
  facet normal 0.000000e+00 0.000000e+00 1.000000e+00
    outer loop
      vertex 8.729980e+00 5.397499e+00 4.775200e+00
      vertex 0.000000e+00 1.619250e+01 4.775200e+00
      vertex 0.000000e+00 5.397499e+00 4.775200e+00
    endloop
  endfacet
  facet normal 0.000000e+00 0.000000e+00 1.000000e+00
    outer loop
      vertex 8.729980e+00 -5.397499e+00 4.775200e+00
      vertex 0.000000e+00 5.397499e+00 4.775200e+00
      vertex 0.000000e+00 -5.397499e+00 4.775200e+00
    endloop
  endfacet
  facet normal 0.000000e+00 0.000000e+00 1.000000e+00
    outer loop
      vertex 8.729980e+00 -1.619250e+01 4.775200e+00
      vertex 0.000000e+00 -5.397499e+00 4.775200e+00
      vertex 0.000000e+00 -1.619250e+01 4.775200e+00
    endloop
  endfacet
  facet normal 0.000000e+00 0.000000e+00 1.000000e+00
    outer loop
      vertex 8.729980e+00 -1.619250e+01 4.775200e+00
      vertex 8.729980e+00 -5.397499e+00 4.775200e+00
      vertex 0.000000e+00 -5.397499e+00 4.775200e+00
    endloop
  endfacet
  facet normal 0.000000e+00 0.000000e+00 1.000000e+00
    outer loop
      vertex 0.000000e+00 2.698750e+01 4.775200e+00
      vertex 1.206351e+00 2.334753e+01 4.775200e+00
      vertex 8.729980e+00 2.698750e+01 4.775200e+00
    endloop
  endfacet
  facet normal 0.000000e+00 0.000000e+00 1.000000e+00
    outer loop
      vertex 1.206351e+00 2.110247e+01 4.775200e+00
      vertex 8.775692e-01 2.085018e+01 4.775200e+00
      vertex 0.000000e+00 1.619250e+01 4.775200e+00
    endloop
  endfacet
  facet normal 0.000000e+00 0.000000e+00 1.000000e+00
    outer loop
      vertex 0.000000e+00 1.619250e+01 4.775200e+00
      vertex 8.775692e-01 2.085018e+01 4.775200e+00
      vertex 4.946947e-01 2.069159e+01 4.775200e+00
    endloop
  endfacet
  facet normal 0.000000e+00 0.000000e+00 1.000000e+00
    outer loop
      vertex 8.381939e-02 2.063750e+01 4.775200e+00
      vertex 0.000000e+00 1.619250e+01 4.775200e+00
      vertex 4.946947e-01 2.069159e+01 4.775200e+00
    endloop
  endfacet
  facet normal 0.000000e+00 0.000000e+00 1.000000e+00
    outer loop
      vertex 8.381939e-02 2.063750e+01 4.775200e+00
      vertex -3.270559e-01 2.069159e+01 4.775200e+00
      vertex 0.000000e+00 1.619250e+01 4.775200e+00
    endloop
  endfacet
  facet normal 0.000000e+00 0.000000e+00 1.000000e+00
    outer loop
      vertex 0.000000e+00 1.619250e+01 4.775200e+00
      vertex -3.270559e-01 2.069159e+01 4.775200e+00
      vertex -7.099304e-01 2.085018e+01 4.775200e+00
    endloop
  endfacet
  facet normal 0.000000e+00 0.000000e+00 1.000000e+00
    outer loop
      vertex -1.038713e+00 2.110247e+01 4.775200e+00
      vertex 0.000000e+00 1.619250e+01 4.775200e+00
      vertex -7.099304e-01 2.085018e+01 4.775200e+00
    endloop
  endfacet
  facet normal 0.000000e+00 0.000000e+00 1.000000e+00
    outer loop
      vertex -1.038713e+00 2.110247e+01 4.775200e+00
      vertex -8.729980e+00 1.619250e+01 4.775200e+00
      vertex 0.000000e+00 1.619250e+01 4.775200e+00
    endloop
  endfacet
  facet normal 0.000000e+00 0.000000e+00 1.000000e+00
    outer loop
      vertex -1.038713e+00 2.110247e+01 4.775200e+00
      vertex -1.290996e+00 2.143125e+01 4.775200e+00
      vertex -8.729980e+00 1.619250e+01 4.775200e+00
    endloop
  endfacet
  facet normal 0.000000e+00 0.000000e+00 1.000000e+00
    outer loop
      vertex -8.729980e+00 1.619250e+01 4.775200e+00
      vertex -1.290996e+00 2.143125e+01 4.775200e+00
      vertex -1.449587e+00 2.181412e+01 4.775200e+00
    endloop
  endfacet
  facet normal 0.000000e+00 0.000000e+00 1.000000e+00
    outer loop
      vertex -1.503681e+00 2.222500e+01 4.775200e+00
      vertex -8.729980e+00 1.619250e+01 4.775200e+00
      vertex -1.449587e+00 2.181412e+01 4.775200e+00
    endloop
  endfacet
  facet normal 0.000000e+00 0.000000e+00 1.000000e+00
    outer loop
      vertex -1.503681e+00 2.222500e+01 4.775200e+00
      vertex -8.729980e+00 2.698750e+01 4.775200e+00
      vertex -8.729980e+00 1.619250e+01 4.775200e+00
    endloop
  endfacet
  facet normal 0.000000e+00 0.000000e+00 1.000000e+00
    outer loop
      vertex 0.000000e+00 1.619250e+01 4.775200e+00
      vertex -8.729980e+00 1.619250e+01 4.775200e+00
      vertex 0.000000e+00 5.397499e+00 4.775200e+00
    endloop
  endfacet
  facet normal 0.000000e+00 0.000000e+00 1.000000e+00
    outer loop
      vertex 0.000000e+00 5.397499e+00 4.775200e+00
      vertex -8.729980e+00 1.619250e+01 4.775200e+00
      vertex -8.729980e+00 5.397499e+00 4.775200e+00
    endloop
  endfacet
  facet normal 0.000000e+00 0.000000e+00 1.000000e+00
    outer loop
      vertex 0.000000e+00 -5.397499e+00 4.775200e+00
      vertex -8.729980e+00 5.397499e+00 4.775200e+00
      vertex -8.729980e+00 -5.397499e+00 4.775200e+00
    endloop
  endfacet
  facet normal 0.000000e+00 0.000000e+00 1.000000e+00
    outer loop
      vertex 0.000000e+00 -1.619250e+01 4.775200e+00
      vertex -8.729980e+00 -5.397499e+00 4.775200e+00
      vertex -8.729980e+00 -1.619250e+01 4.775200e+00
    endloop
  endfacet
  facet normal 0.000000e+00 0.000000e+00 1.000000e+00
    outer loop
      vertex 0.000000e+00 -1.619250e+01 4.775200e+00
      vertex 0.000000e+00 -5.397499e+00 4.775200e+00
      vertex -8.729980e+00 -5.397499e+00 4.775200e+00
    endloop
  endfacet
  facet normal 0.000000e+00 0.000000e+00 1.000000e+00
    outer loop
      vertex 0.000000e+00 5.397499e+00 4.775200e+00
      vertex -8.729980e+00 5.397499e+00 4.775200e+00
      vertex 0.000000e+00 -5.397499e+00 4.775200e+00
    endloop
  endfacet
  facet normal 0.000000e+00 0.000000e+00 1.000000e+00
    outer loop
      vertex 8.729980e+00 -5.397499e+00 4.775200e+00
      vertex 8.729980e+00 5.397499e+00 4.775200e+00
      vertex 0.000000e+00 5.397499e+00 4.775200e+00
    endloop
  endfacet
  facet normal 0.000000e+00 0.000000e+00 1.000000e+00
    outer loop
      vertex 8.729980e+00 5.397499e+00 4.775200e+00
      vertex 8.729980e+00 1.619250e+01 4.775200e+00
      vertex 0.000000e+00 1.619250e+01 4.775200e+00
    endloop
  endfacet
endsolid Default
